<?xml version="1.0"?>
<svg width="148" height="30" xmlns="http://www.w3.org/2000/svg" xmlns:svg="http://www.w3.org/2000/svg">
 <g class="layer">
  <title>Layer 1</title>
  <path d="m3.51,11.75c0.02,0 0.05,0 0.08,0c0.04,0 0.04,0 0.09,0c0.05,0 0.05,0 0.1,0c0.04,0 0.07,0 0.11,0c0.1,0 0.2,0 0.3,0c0.11,0 0.21,0 0.32,0c0.19,0 0.37,0 0.56,0c0.27,0 0.54,0 0.8,0c0.44,0 0.88,0 1.31,0c0.43,0 0.85,0 1.27,0c0.03,0 0.06,0 0.08,0c0.13,0 0.26,0 0.4,0c1.08,0 2.17,0 3.26,0c0,0.16 -0.06,0.25 -0.13,0.39c-0.34,0.68 -0.59,1.42 -0.73,2.18c0,0.03 -0.01,0.06 -0.01,0.09c-0.19,1 -0.17,2.05 0.01,3.05c0.01,0.02 0.01,0.05 0.02,0.08c0.22,1.22 0.75,2.38 1.48,3.34c0.01,0.02 0.02,0.04 0.03,0.06c0.32,0.43 0.68,0.83 1.09,1.16c0.03,0.02 0.03,0.02 0.05,0.05c0.44,0.35 0.89,0.66 1.38,0.91c0.02,0.01 0.05,0.02 0.07,0.03c0.96,0.49 2,0.73 3.06,0.73c0.03,0 0.05,0 0.07,0.01c0.4,-0.01 0.79,-0.03 1.19,-0.11c0.02,-0.01 0.05,-0.01 0.07,-0.02c0.98,-0.18 1.94,-0.59 2.76,-1.2c0.05,-0.04 0.05,-0.04 0.1,-0.07c0.27,-0.2 0.51,-0.42 0.75,-0.66c0.02,-0.01 0.04,-0.03 0.05,-0.05c0.19,-0.18 0.37,-0.36 0.53,-0.57c0.02,-0.03 0.05,-0.06 0.07,-0.09c0.3,-0.36 0.56,-0.77 0.77,-1.19c0.02,-0.02 0.03,-0.05 0.04,-0.08c0.01,-0.02 0.02,-0.04 0.03,-0.06c-0.02,0 -0.04,0 -0.07,0c-0.56,0 -1.13,0 -1.7,0c-0.27,0 -0.55,0 -0.82,0c-0.24,0 -0.48,0 -0.72,0c-0.13,0 -0.25,0 -0.38,0c-0.12,0 -0.24,0 -0.36,0c-0.04,0 -0.08,0 -0.13,0c-0.06,0 -0.12,0 -0.18,0c-0.03,0 -0.06,0 -0.1,0c-0.07,0 -0.07,0 -0.1,-0.03c-0.01,-0.05 -0.01,-0.1 -0.01,-0.15c0,-0.04 0,-0.07 0,-0.1c0,-0.04 0,-0.07 0,-0.11c0,-0.04 0,-0.08 0,-0.11c0,-0.13 0,-0.25 0,-0.38c0,-0.08 0,-0.17 0,-0.26c0,-0.18 0,-0.36 0,-0.54c0,-0.21 0,-0.42 0,-0.63c0,-0.2 0,-0.4 0,-0.6c0,-0.09 0,-0.18 0,-0.26c0,-0.12 0,-0.24 0,-0.36c0,-0.04 0,-0.07 0,-0.11c0,-0.03 0,-0.07 0,-0.1c0,-0.03 0,-0.06 0,-0.08c0.01,-0.07 0.01,-0.07 0.04,-0.1c0.05,-0.01 0.09,-0.01 0.14,-0.01c0.03,0 0.07,0 0.1,0c0.03,0 0.07,0 0.1,0c0.04,0 0.08,0 0.12,0c0.1,0 0.2,0 0.31,0c0.11,0 0.22,0 0.33,0c0.22,0 0.43,0 0.65,0c0.18,0 0.35,0 0.53,0c0.02,0 0.05,0 0.08,0c0.05,0 0.1,0 0.15,0c0.48,0 0.96,0 1.43,0c0.41,0 0.83,0 1.24,0c0.47,0 0.95,0 1.43,0c0.05,0 0.1,0 0.15,0c0.04,0 0.04,0 0.07,0c0.18,0 0.36,0 0.53,0c0.22,0 0.43,0 0.65,0c0.11,0 0.22,0 0.33,0c0.12,0 0.24,0 0.35,0c0.04,0 0.07,0 0.11,0c0.03,0 0.06,0 0.1,0c0.02,0 0.05,0 0.08,0c0.06,0.01 0.06,0.01 0.09,0.04c0.01,0.15 0.01,0.3 0.01,0.45c0,0.03 0,0.03 0,0.06c0,0.44 -0.04,0.87 -0.1,1.3c-0.01,0.06 -0.01,0.06 -0.02,0.11c-0.25,1.72 -0.84,3.41 -1.78,4.84c-0.02,0.03 -0.04,0.06 -0.06,0.09c-0.06,0.09 -0.12,0.18 -0.18,0.27c-0.02,0.03 -0.05,0.07 -0.07,0.1c-0.53,0.77 -1.15,1.48 -1.85,2.08c-0.04,0.03 -0.08,0.07 -0.12,0.1c-1.52,1.32 -3.37,2.14 -5.3,2.43c-0.02,0 -0.04,0.01 -0.07,0.01c-0.46,0.07 -0.92,0.1 -1.39,0.1c-0.02,0 -0.04,0 -0.06,0c-0.41,0 -0.81,-0.02 -1.22,-0.07c-0.03,-0.01 -0.06,-0.01 -0.1,-0.02c-0.97,-0.12 -1.92,-0.4 -2.82,-0.81c-0.02,-0.01 -0.04,-0.02 -0.06,-0.02c-0.31,-0.15 -0.62,-0.3 -0.92,-0.47c-0.02,-0.01 -0.04,-0.03 -0.06,-0.04c-0.3,-0.17 -0.58,-0.36 -0.87,-0.56c-0.03,-0.02 -0.06,-0.04 -0.09,-0.07c-0.17,-0.12 -0.33,-0.25 -0.49,-0.39c-0.07,-0.06 -0.14,-0.12 -0.21,-0.18c-0.12,-0.1 -0.24,-0.21 -0.36,-0.33c-0.06,-0.06 -0.13,-0.12 -0.19,-0.19c-0.15,-0.13 -0.29,-0.28 -0.42,-0.43c-0.03,-0.03 -0.05,-0.06 -0.08,-0.08c-0.15,-0.16 -0.29,-0.33 -0.42,-0.5c-0.02,-0.02 -0.04,-0.04 -0.05,-0.06c-0.39,-0.5 -0.73,-1.03 -1.04,-1.59c-0.03,-0.05 -0.07,-0.11 -0.1,-0.17c-0.33,-0.58 -0.57,-1.23 -0.79,-1.87c-0.02,-0.05 -0.02,-0.05 -0.04,-0.1c-0.4,-1.19 -0.61,-2.49 -0.6,-3.75c0,-0.04 0,-0.08 0,-0.12c0,-0.1 0,-0.19 0,-0.28c-0.04,0 -0.04,0 -0.08,0c-1.17,0.03 -2.14,-0.23 -3.02,-1.11c-0.62,-0.68 -1.04,-1.63 -1.05,-2.59c0,-0.22 0,-0.22 0.1,-0.23z" fill="#2563EB" id="svg_2"/>
  <path d="m0.16,4c0.03,0 0.05,0 0.08,0c0.05,0 0.05,0 0.09,0c0.03,0 0.07,0 0.1,0c0.11,0 0.21,0 0.32,0c0.08,0 0.16,0 0.23,0c0.17,0 0.34,0 0.51,0c0.25,0 0.51,0 0.76,0c0.47,0 0.95,0 1.42,0c0.37,0 0.74,0 1.11,0c0.1,0 0.21,0 0.31,0c0.03,0 0.06,0 0.08,0c0.74,0 1.48,0 2.22,0c0.03,0 0.06,0 0.09,0c0.14,0 0.28,0 0.42,0c0.03,0 0.06,0 0.09,0c0.06,0 0.11,0 0.17,0c0.88,0 1.77,0 2.65,0c0.99,0 1.98,0 2.98,0c0.1,0 0.21,0 0.31,0c0.03,0 0.06,0 0.08,0c0.42,0 0.84,0 1.26,0c0.42,0 0.84,0 1.26,0c0.25,0 0.5,0 0.75,0c0.19,0 0.38,0 0.57,0c0.07,0 0.15,0 0.22,0c0.67,0 1.34,0.03 2,0.15c0.02,0 0.04,0 0.06,0.01c1.09,0.18 2.16,0.56 3.14,1.11c0.09,0.05 0.19,0.1 0.28,0.15c0.79,0.43 1.49,1.01 2.15,1.64c0.04,0.04 0.09,0.08 0.13,0.12c0.02,0.02 0.05,0.04 0.07,0.06c0.03,0.03 0.03,0.03 0.06,0.06c0.03,0.04 0.03,0.04 0.03,0.1c0.03,0.02 0.03,0.02 0.06,0.03c0.06,0.04 0.11,0.08 0.16,0.14c0,0.02 0,0.04 0,0.06c0.01,0.01 0.03,0.02 0.05,0.03c0.07,0.04 0.11,0.08 0.16,0.14c0.07,0.1 0.14,0.19 0.21,0.28c0.64,0.77 1.17,1.65 1.59,2.58c0.03,0.07 0.06,0.14 0.09,0.21c0.1,0.23 0.2,0.47 0.29,0.71c0.01,0.04 0.01,0.04 0.02,0.07c0.04,0.12 0.06,0.18 0.02,0.3c-0.5,0.02 -1,0.03 -1.5,0.04c-0.23,0 -0.47,0.01 -0.7,0.01c-0.2,0.01 -0.4,0.01 -0.61,0.02c-0.1,0 -0.21,0 -0.32,0c-0.65,0.03 -0.65,0.03 -0.84,-0.14c-0.14,-0.16 -0.23,-0.34 -0.31,-0.54c-0.06,-0.12 -0.14,-0.23 -0.22,-0.33c-0.01,-0.02 -0.03,-0.04 -0.04,-0.06c-0.17,-0.23 -0.35,-0.44 -0.54,-0.65c-0.16,-0.16 -0.16,-0.16 -0.2,-0.21c-1.14,-1.27 -2.96,-2.08 -4.59,-2.13c-0.19,0 -0.38,0 -0.57,0c-0.07,0 -0.13,0 -0.2,0c-0.18,0 -0.35,0 -0.53,0c-0.19,0 -0.39,0 -0.58,0c-0.31,0 -0.62,0 -0.93,0c-0.53,0 -1.05,0 -1.58,0c-0.2,-0.01 -0.41,-0.01 -0.61,-0.01c-0.02,0 -0.04,0 -0.07,0c-0.53,0 -1.07,0 -1.6,0c-0.03,0 -0.05,0 -0.07,0c-0.55,0 -1.09,0 -1.64,0c-0.04,0 -0.04,0 -0.07,0c-0.19,0 -0.38,0 -0.57,0c-0.78,0 -1.56,0 -2.34,0c-0.11,0 -0.22,0 -0.33,0c-0.03,0 -0.05,0 -0.07,0c-0.35,0 -0.7,0 -1.05,0c-0.35,0 -0.7,0 -1.05,-0.01c-0.19,0 -0.38,0 -0.57,0c-0.17,0 -0.35,0 -0.52,0c-0.06,0 -0.13,0 -0.19,0c-1.05,0.01 -1.97,-0.33 -2.73,-1.13c-0.03,-0.03 -0.03,-0.03 -0.07,-0.07c-0.32,-0.33 -0.54,-0.75 -0.72,-1.18c-0.02,-0.04 -0.03,-0.07 -0.05,-0.11c-0.08,-0.22 -0.13,-0.45 -0.17,-0.69c-0.01,-0.03 -0.01,-0.06 -0.02,-0.09c-0.03,-0.21 -0.05,-0.42 -0.03,-0.63c0.04,-0.05 0.08,-0.04 0.15,-0.04z" fill="#2563EB" id="svg_3"/>
  <text fill="#000000" font-family="Fantasy" font-size="30" font-style="italic" font-weight="normal" id="svg_7" stroke-width="0" text-anchor="middle" x="77.75" xml:space="preserve" y="26.92">CarZilla</text>
 </g>
</svg>